<?xml version="1.0" encoding="utf-8"?>
<!-- Generator: Adobe Illustrator 19.0.0, SVG Export Plug-In . SVG Version: 6.00 Build 0)  -->
<svg version="1.1" xmlns="http://www.w3.org/2000/svg" xmlns:xlink="http://www.w3.org/1999/xlink" x="0px" y="0px"
	 viewBox="0 0 500 500" style="enable-background:new 0 0 500 500;" xml:space="preserve">
<style type="text/css">
	.st0{fill:url(#XMLID_9_);}
	.st1{fill:url(#XMLID_11_);}
	.st2{fill:url(#XMLID_12_);}
	.st3{fill:url(#XMLID_13_);}
	.st4{fill:#FFFFFF;}
	.st5{fill:url(#XMLID_14_);}
	.st6{fill:url(#XMLID_24_);}
	.st7{fill:url(#XMLID_29_);}
	.st8{fill:url(#XMLID_30_);}
	.st9{fill:#2E8254;}
	.st10{font-family:'Cabin-Medium';}
	.st11{font-size:53px;}
	.st12{fill:#303A33;}
</style>
<g id="BACKGROUND">
</g>
<g id="OBJECTS">
	<g>
		<g id="XMLID_2_">
			<linearGradient id="XMLID_9_" gradientUnits="userSpaceOnUse" x1="248.9921" y1="250.6544" x2="270.1149" y2="94.0851">
				<stop  offset="0" style="stop-color:#2BA66D"/>
				<stop  offset="0.1931" style="stop-color:#6BDF94"/>
				<stop  offset="0.8218" style="stop-color:#AEF484"/>
			</linearGradient>
			<path id="XMLID_3_" class="st0" d="M300.1,144.7c-2.3-23.8-12.9-46.7-31.5-68.1c-0.4-0.5-1-0.8-1.6-0.8c-0.6,0-1.1,0.2-1.5,0.5
				c-0.4,0.4-0.7,0.9-0.8,1.5c0,0.6,0.1,1.2,0.5,1.6c32.5,37.4,39.5,78.4,20.8,121.7c-10.6,24.6-27,43.1-34.4,50.7
				c-1.6-13.5-4.1-49.7,7.6-83.1c14.9-42.5,16.4-52.6,11.6-77.5c-0.2-1-1.1-1.8-2.2-1.8c-0.1,0-0.3,0-0.4,0c-1.2,0.2-2,1.4-1.8,2.6
				c4.4,23,4,31.3-11.4,75.2c-11.1,31.7-9.7,65.6-8.2,81.6c-10.6-14.7-31.3-49.7-20.2-86.1c5.4-17.7,13.2-27.5,20-36.1
				c8.9-11.2,16.6-21,15.6-43c-0.1-1.2-1.1-2.2-2.3-2.1c-0.6,0-1.1,0.3-1.5,0.7c-0.4,0.4-0.6,1-0.6,1.6c1,20.4-5.9,29-14.6,40
				c-7.1,9-15.2,19.1-20.8,37.6c-8,26.1-0.2,51.3,7.7,67.8c6.3,13.1,13.6,23,17.1,27.3c-0.2,0.7-0.1,1.6,0.4,2.2
				c0.3,0.3,0.7,0.6,1.2,0.7c0.4,0.3,0.9,0.5,1.4,0.5c0.1,0,0.3,0,0.4,0c0.2,0,0.5-0.1,0.7-0.2c0.4-0.1,0.8-0.3,1.1-0.5
				c0.7-0.6,0.9-1.5,0.6-2.3c6.4-6.3,25.2-26.2,37.2-53.8C298.6,183.4,302,163.7,300.1,144.7z"/>
			<g id="XMLID_4_">
				<linearGradient id="XMLID_11_" gradientUnits="userSpaceOnUse" x1="85.9031" y1="241.8795" x2="251.3829" y2="241.8795">
					<stop  offset="0.1782" style="stop-color:#AEF484"/>
					<stop  offset="0.8069" style="stop-color:#6BDF94"/>
					<stop  offset="1" style="stop-color:#2BA66D"/>
				</linearGradient>
				<path id="XMLID_5_" class="st1" d="M251.2,259.7c-0.1-0.3-12.8-31-51.4-37.8c-3.8-0.7-7.7-1-12.1-1c-12.4,0-25.2,2.8-37.5,5.4
					c-12,2.6-23.3,5-33.7,5c-11.3,0-19.8-2.8-26.8-8.9c-0.4-0.4-1-0.6-1.5-0.6c-0.7,0-1.3,0.3-1.7,0.8c-0.4,0.5-0.6,1.1-0.6,1.7
					c0,0.6,0.3,1.2,0.8,1.6c7.9,6.9,17.4,10.1,29.7,10.1c10.9,0,22.5-2.5,34.8-5.2c12.1-2.6,24.7-5.3,36.6-5.3c4,0,7.7,0.3,11.2,0.9
					c35.9,6.3,47.8,34.7,47.9,35c0.4,0.9,1.2,1.4,2.1,1.4c0.3,0,0.6-0.1,0.9-0.2C251.1,262.2,251.7,260.9,251.2,259.7z"/>
				<linearGradient id="XMLID_12_" gradientUnits="userSpaceOnUse" x1="250.7278" y1="241.88" x2="416.2099" y2="241.88">
					<stop  offset="0" style="stop-color:#2BA66D"/>
					<stop  offset="0.1931" style="stop-color:#6BDF94"/>
					<stop  offset="0.8218" style="stop-color:#AEF484"/>
				</linearGradient>
				<path id="XMLID_6_" class="st2" d="M415.6,222.6c-0.4-0.5-1.1-0.8-1.7-0.8c-0.6,0-1.1,0.2-1.5,0.6c-7,6.1-15.5,8.9-26.8,8.9
					c-10.5,0-21.8-2.4-33.7-5c-12.4-2.7-25.2-5.4-37.5-5.4c-4.3,0-8.3,0.3-12.1,1c-38.6,6.8-51.2,37.5-51.4,37.8
					c-0.2,0.6-0.2,1.2,0,1.8c0.2,0.6,0.7,1,1.3,1.2c0.3,0.1,0.6,0.2,0.9,0.2c0.9,0,1.8-0.6,2.1-1.4c0.1-0.3,12-28.7,47.9-35
					c3.5-0.6,7.2-0.9,11.2-0.9c11.9,0,24.4,2.7,36.6,5.3c12.3,2.6,23.9,5.2,34.8,5.2c12.2,0,21.9-3.3,29.7-10.1
					c0.5-0.4,0.7-1,0.8-1.6C416.2,223.7,416,223.1,415.6,222.6z"/>
			</g>
			<linearGradient id="XMLID_13_" gradientUnits="userSpaceOnUse" x1="76.1014" y1="255.2148" x2="250.167" y2="255.2148">
				<stop  offset="0.1782" style="stop-color:#AEF484"/>
				<stop  offset="0.8069" style="stop-color:#6BDF94"/>
				<stop  offset="1" style="stop-color:#2BA66D"/>
			</linearGradient>
			<path id="XMLID_7_" class="st3" d="M76.1,277.1c0,0,3-14.4,3.3-29.1c0,0,32.7,3.7,61.1-5.3c28.4-9,76.2-22.4,109.6,19.7l-14,14.7
				H76.1z"/>
			<g id="XMLID_10_">
				<path id="XMLID_26_" class="st4" d="M98.2,262.7c0,0,2.1-0.1,5.7-0.3c3.6-0.2,8.8-0.6,15-1.2c3.1-0.3,6.5-0.7,10-1.1
					c3.5-0.4,7.3-1,11.1-1.5c1.9-0.3,3.9-0.6,5.8-1c2-0.4,3.9-0.7,5.9-1.1c1-0.2,2-0.4,3-0.6c1-0.2,2-0.5,3-0.7
					c2-0.5,4.1-0.9,6.1-1.4c1-0.2,2-0.5,3.1-0.7c1.1-0.2,2.1-0.4,3.2-0.5c2.1-0.4,4.2-0.6,6.3-0.9c2.1-0.3,4.2-0.3,6.2-0.5
					c2-0.1,4.1-0.1,6.1-0.1c4,0.1,7.8,0.3,11.5,0.8c3.6,0.4,7,1.2,10.1,2c1.5,0.4,3,0.9,4.4,1.3c1.4,0.5,2.6,1,3.8,1.5
					c1.2,0.5,2.3,1,3.3,1.5c1,0.5,1.9,1,2.7,1.4c1.6,0.9,2.8,1.7,3.6,2.3c0.8,0.6,1.2,0.9,1.2,0.9s-0.5-0.2-1.4-0.6
					c-0.4-0.2-1-0.5-1.6-0.8c-0.7-0.3-1.4-0.6-2.2-0.9c-1.7-0.7-3.8-1.4-6.2-2.1c-1.2-0.4-2.5-0.7-3.9-1c-1.4-0.3-2.8-0.6-4.3-0.9
					c-1.5-0.2-3.1-0.6-4.7-0.7c-0.8-0.1-1.7-0.2-2.5-0.3c-0.8-0.1-1.7-0.1-2.6-0.2c-3.5-0.3-7.2-0.3-11-0.2
					c-1.9,0.1-3.9,0.2-5.8,0.4c-1,0.1-2,0.2-3,0.3l-1.5,0.1l-1.5,0.2c-2,0.3-4,0.5-6,0.9l-3,0.5c-1,0.2-2,0.5-3,0.7
					c-2,0.4-4.1,0.9-6.1,1.3c-1,0.2-2.1,0.4-3.1,0.7c-1,0.2-2.1,0.4-3.1,0.6c-1,0.2-2,0.4-3.1,0.5c-1,0.1-2,0.3-3,0.4
					c-2,0.3-4,0.5-6,0.8c-3.9,0.5-7.7,0.7-11.3,0.9c-3.6,0.2-7,0.3-10.2,0.3c-3.1,0-6,0-8.6-0.1c-2.6-0.1-4.8-0.3-6.6-0.4
					C100.2,263.1,98.2,262.7,98.2,262.7z"/>
			</g>
			<linearGradient id="XMLID_14_" gradientUnits="userSpaceOnUse" x1="250" y1="255.2148" x2="424.0656" y2="255.2148">
				<stop  offset="0" style="stop-color:#2BA66D"/>
				<stop  offset="0.1931" style="stop-color:#6BDF94"/>
				<stop  offset="0.8218" style="stop-color:#AEF484"/>
			</linearGradient>
			<path id="XMLID_25_" class="st5" d="M424.1,277.1c0,0-3-14.4-3.3-29.1c0,0-32.7,3.7-61.1-5.3c-28.4-9-76.2-22.4-109.6,19.7
				l14,14.7H424.1z"/>
			<g id="XMLID_23_">
				<path id="XMLID_28_" class="st4" d="M402,262.7c0,0-2.1,0.3-5.7,0.6c-1.8,0.1-4,0.3-6.6,0.4c-2.6,0.1-5.4,0.2-8.6,0.1
					c-3.1,0-6.6-0.1-10.2-0.3c-3.6-0.2-7.4-0.5-11.3-0.9c-2-0.2-4-0.5-6-0.8c-1-0.1-2-0.3-3-0.4c-1-0.2-2-0.4-3.1-0.5
					c-1-0.2-2-0.4-3.1-0.6c-1-0.2-2-0.4-3.1-0.7c-2-0.4-4.1-0.9-6.1-1.3c-1-0.2-2-0.5-3-0.7l-3-0.5c-2-0.4-4-0.6-6-0.9l-1.5-0.2
					l-1.5-0.1c-1-0.1-2-0.2-3-0.3c-2-0.2-3.9-0.3-5.8-0.4c-3.8,0-7.5-0.1-11,0.2c-0.9,0.1-1.7,0.1-2.6,0.2c-0.8,0.1-1.7,0.2-2.5,0.3
					c-1.7,0.1-3.2,0.5-4.7,0.7c-1.5,0.3-2.9,0.6-4.3,0.9c-1.4,0.4-2.7,0.6-3.9,1c-2.4,0.7-4.5,1.4-6.2,2.1c-0.8,0.4-1.6,0.7-2.2,0.9
					c-0.7,0.3-1.2,0.6-1.6,0.8c-0.9,0.4-1.4,0.6-1.4,0.6s0.4-0.3,1.2-0.9c0.8-0.6,2-1.4,3.6-2.3c0.8-0.5,1.7-0.9,2.7-1.4
					c1-0.5,2.1-1,3.3-1.5c1.2-0.5,2.5-1,3.8-1.5c1.4-0.4,2.8-0.9,4.4-1.3c3.1-0.8,6.4-1.6,10.1-2c3.6-0.5,7.5-0.8,11.5-0.8
					c2,0,4,0,6.1,0.1c2,0.2,4.1,0.2,6.2,0.5c2.1,0.3,4.2,0.5,6.3,0.9c1.1,0.2,2.1,0.4,3.2,0.5c1,0.2,2,0.4,3.1,0.7
					c2,0.5,4.1,0.9,6.1,1.4c1,0.2,2,0.5,3,0.7c1,0.2,2,0.4,3,0.6c2,0.4,4,0.8,5.9,1.1c2,0.4,3.9,0.7,5.8,1c3.8,0.6,7.5,1.1,11.1,1.5
					c3.5,0.4,6.9,0.8,10,1.1c6.2,0.6,11.4,1,15,1.2C399.9,262.6,402,262.7,402,262.7z"/>
			</g>
			<g id="XMLID_16_">
				<g id="XMLID_48_">
					<g id="XMLID_49_">
						<linearGradient id="XMLID_24_" gradientUnits="userSpaceOnUse" x1="68.4028" y1="284.1317" x2="431.5972" y2="284.1317">
							<stop  offset="4.950500e-003" style="stop-color:#1A242D"/>
							<stop  offset="0.5149" style="stop-color:#194A3D"/>
							<stop  offset="1" style="stop-color:#1A242D"/>
						</linearGradient>
						<path id="XMLID_50_" class="st6" d="M250.2,294.8c-8.5,0-15.6-6-17.3-14H72.1c-2,0-3.7-1.7-3.7-3.7c0-2,1.7-3.7,3.7-3.7h167.7
							v3.7c0,5.7,4.6,10.3,10.3,10.3s10.3-4.6,10.3-10.3v-3.7h167.4c2,0,3.7,1.7,3.7,3.7c0,2-1.7,3.7-3.7,3.7H267.5
							C265.8,288.8,258.7,294.8,250.2,294.8z"/>
					</g>
				</g>
			</g>
			<linearGradient id="XMLID_29_" gradientUnits="userSpaceOnUse" x1="180.3825" y1="192.0842" x2="217.8851" y2="217.937">
				<stop  offset="0.2277" style="stop-color:#AEF484"/>
				<stop  offset="1" style="stop-color:#6BDF94"/>
			</linearGradient>
			<path id="XMLID_20_" class="st7" d="M214.5,218.3c0,0,4.6-23.2-30.2-25.5C184.3,192.7,188.5,220.6,214.5,218.3z"/>
			
				<linearGradient id="XMLID_30_" gradientUnits="userSpaceOnUse" x1="66.2601" y1="192.0842" x2="103.7628" y2="217.937" gradientTransform="matrix(-1 0 0 1 394.6761 0)">
				<stop  offset="0.2277" style="stop-color:#AEF484"/>
				<stop  offset="1" style="stop-color:#6BDF94"/>
			</linearGradient>
			<path id="XMLID_1_" class="st8" d="M294.3,218.3c0,0-4.6-23.2,30.2-25.5C324.5,192.7,320.3,220.6,294.3,218.3z"/>
		</g>
		<g>
			<g id="XMLID_19_">
				<text id="XMLID_21_" transform="matrix(1 0 0 1 97.2363 344.1653)" class="st9 st10 st11">GREEN</text>
				<text id="XMLID_22_" transform="matrix(1 0 0 1 266.2906 344.1653)" class="st12 st10 st11">FIELD</text>
			</g>
		</g>
	</g>
</g>
</svg>
